<svg preserveAspectRatio="none" width="100%" height="100%" overflow="visible" style="display: block;" viewBox="0 0 138 16" fill="none" xmlns="http://www.w3.org/2000/svg">
<g id="logo">
<path d="M19.2558 12.8C19.2558 14.56 17.8116 16 16.0465 16H0V12.8H19.2558ZM0 6.4V3.2H3.17721C3.17721 1.44 4.6214 0 6.38651 0H22.433V3.2H3.2093V6.4H19.2558C21.0209 6.4 22.4651 7.84 22.4651 9.6V12.8H19.2558V9.6H3.2093C1.44419 9.6 0 8.16 0 6.4Z" fill="var(--fill-0, white)"/>
<path d="M52.9535 3.2H33.6977V0H52.9535V3.2ZM30.4884 9.6V6.4C30.4884 4.64 31.9326 3.2 33.6977 3.2V12.8C31.9326 12.8 30.4884 11.36 30.4884 9.6ZM33.6977 16V12.8H52.9535V16H33.6977Z" fill="var(--fill-0, white)"/>
<path d="M70.6043 3.2V12.8H67.395V3.2H70.6043ZM61.1773 16V12.8H67.395C67.395 14.56 65.9508 16 64.1857 16H61.1773ZM60.9765 3.2V0H64.1857C65.9508 0 67.395 1.44 67.395 3.2H60.9765Z" fill="var(--fill-0, white)"/>
<path d="M67.395 3.2V12.8H70.6043V3.2H67.395ZM76.8223 16V12.8H70.6043C70.6043 14.56 72.0488 16 73.8139 16H76.8223ZM77.0231 3.2V0H73.8139C72.0488 0 70.6043 1.44 70.6043 3.2H77.0231Z" fill="var(--fill-0, white)"/>
<path d="M104.302 3.2H88.2558V0H104.302V3.2ZM85.0465 9.6V6.4C85.0465 4.64 86.4907 3.2 88.2558 3.2V12.8C86.4907 12.8 85.0465 11.36 85.0465 9.6ZM88.2558 16V12.8H104.302V16H88.2558ZM104.302 12.8V3.2C106.067 3.2 107.512 4.64 107.512 6.4V9.6C107.512 11.36 106.067 12.8 104.302 12.8Z" fill="var(--fill-0, white)"/>
<path d="M134.791 3.2H118.744V0H134.791V3.2ZM115.535 16V6.4C115.535 4.64 116.979 3.2 118.744 3.2V16H115.535ZM134.791 16V3.2C136.556 3.2 138 4.64 138 6.4V16H134.791Z" fill="var(--fill-0, white)"/>
</g>
</svg>
