<svg preserveAspectRatio="none" width="100%" height="100%" overflow="visible" style="display: block;" viewBox="0 0 96 96" fill="none" xmlns="http://www.w3.org/2000/svg">
<g id="Group">
<path id="Vector" fill-rule="evenodd" clip-rule="evenodd" d="M47.9988 47.9988C47.9988 61.2438 37.2441 71.9985 23.9992 71.9985C10.7542 71.9985 0 61.2438 0 47.9988H47.9988Z" fill="var(--fill-0, white)"/>
<path id="Vector_2" fill-rule="evenodd" clip-rule="evenodd" d="M96 47.9988C96 34.7539 85.2453 23.9992 72.0004 23.9992C58.7554 23.9992 47.9988 34.7539 47.9988 47.9988H96Z" fill="var(--fill-0, white)"/>
<path id="Vector_3" fill-rule="evenodd" clip-rule="evenodd" d="M47.9988 47.9988C34.7539 47.9988 23.9992 37.2441 23.9992 23.9992C23.9992 10.7542 34.7539 0 47.9988 0V47.9988Z" fill="var(--fill-0, white)"/>
<path id="Vector_4" fill-rule="evenodd" clip-rule="evenodd" d="M47.9988 47.9988C61.2461 47.9988 72.0004 58.7535 72.0004 71.9985C72.0004 85.2434 61.2457 95.9981 47.9988 95.9981V47.9988Z" fill="var(--fill-0, white)"/>
</g>
</svg>
