<svg preserveAspectRatio="none" width="100%" height="100%" overflow="visible" style="display: block;" viewBox="0 0 96 96" fill="none" xmlns="http://www.w3.org/2000/svg">
<g id="Group">
<path id="Vector" d="M31.9998 -2.07082e-06H47.9998V16H31.9998V-2.07082e-06Z" fill="var(--fill-0, white)"/>
<path id="Vector_2" d="M15.9998 16H31.9998V32H15.9998V16Z" fill="var(--fill-0, white)"/>
<path id="Vector_3" d="M-0.000225485 32H15.9998V48H-0.000225485V32Z" fill="var(--fill-0, white)"/>
<path id="Vector_4" d="M-0.000225485 48H15.9998V64H-0.000225485V48Z" fill="var(--fill-0, white)"/>
<path id="Vector_5" d="M15.9998 64H31.9998V80H15.9998V64Z" fill="var(--fill-0, white)"/>
<path id="Vector_6" d="M31.9998 80H47.9998V96H31.9998V80Z" fill="var(--fill-0, white)"/>
<path id="Vector_7" d="M47.9998 80H63.9998V96H47.9998V80Z" fill="var(--fill-0, white)"/>
<path id="Vector_8" d="M63.9998 64H79.9998V80H63.9998V64Z" fill="var(--fill-0, white)"/>
<path id="Vector_9" d="M79.9998 48H95.9998V64H79.9998V48Z" fill="var(--fill-0, white)"/>
<path id="Vector_10" d="M79.9998 32H95.9998V48H79.9998V32Z" fill="var(--fill-0, white)"/>
<path id="Vector_11" d="M63.9998 16H79.9998V32H63.9998V16Z" fill="var(--fill-0, white)"/>
<path id="Vector_12" d="M47.9998 -2.07082e-06H63.9998V16H47.9998V-2.07082e-06Z" fill="var(--fill-0, white)"/>
</g>
</svg>
