<svg preserveAspectRatio="none" width="100%" height="100%" overflow="visible" style="display: block;" viewBox="0 0 96 96" fill="none" xmlns="http://www.w3.org/2000/svg">
<g id="Group">
<path id="Vector" fill-rule="evenodd" clip-rule="evenodd" d="M47.9964 0H0V47.9998C12.7286 47.9998 24.9369 42.9434 33.938 33.9423C42.9391 24.9416 47.9964 12.7329 47.9964 0.00475269C47.9964 12.7334 53.0519 24.9416 62.0525 33.9427C71.0532 42.9439 83.2619 48.0002 95.9929 48.0002V0L47.9964 0Z" fill="var(--fill-0, white)"/>
<path id="Vector_2" fill-rule="evenodd" clip-rule="evenodd" d="M47.9964 95.9962C47.9964 83.2666 42.9391 71.0589 33.938 62.0577C24.9369 53.0566 12.7286 47.9998 0 47.9998V96H95.9929V47.9998C83.2619 47.9998 71.0532 53.0566 62.0525 62.0573C53.0519 71.0584 47.9964 83.2661 47.9964 95.9957V95.9962Z" fill="var(--fill-0, white)"/>
</g>
</svg>
