<svg preserveAspectRatio="none" width="100%" height="100%" overflow="visible" style="display: block;" viewBox="0 0 96 96" fill="none" xmlns="http://www.w3.org/2000/svg">
<g id="Group">
<path id="Vector" fill-rule="evenodd" clip-rule="evenodd" d="M47.9998 0C47.9998 26.5096 69.4909 47.9998 95.9995 47.9998V24.0001C82.7438 24.0001 71.9985 13.2548 71.9985 0L47.9998 0Z" fill="var(--fill-0, white)"/>
<path id="Vector_2" fill-rule="evenodd" clip-rule="evenodd" d="M47.9998 95.9995C47.9998 69.4899 69.4909 47.9998 95.9995 47.9998V71.9999C82.7438 71.9999 71.9985 82.7447 71.9985 95.9995H47.9998Z" fill="var(--fill-0, white)"/>
<path id="Vector_3" fill-rule="evenodd" clip-rule="evenodd" d="M47.9998 0C47.9998 26.5096 26.5086 47.9998 0 47.9998V24.0001C13.2558 24.0001 23.9987 13.2548 23.9987 0L47.9998 0Z" fill="var(--fill-0, white)"/>
<path id="Vector_4" fill-rule="evenodd" clip-rule="evenodd" d="M47.9998 95.9995C47.9998 69.4899 26.5086 47.9998 0 47.9998V71.9999C13.2558 71.9999 23.9987 82.7447 23.9987 95.9995H47.9998Z" fill="var(--fill-0, white)"/>
</g>
</svg>
