<svg preserveAspectRatio="none" width="100%" height="100%" overflow="visible" style="display: block;" viewBox="0 0 96 96" fill="none" xmlns="http://www.w3.org/2000/svg">
<g id="Group">
<path id="Vector" fill-rule="evenodd" clip-rule="evenodd" d="M64.0003 95.9981C81.66 95.9981 96.0005 81.6586 96.0005 63.9984C96.0005 46.3383 81.6604 31.9978 64.0003 31.9978V95.9981Z" fill="var(--fill-0, white)"/>
<path id="Vector_2" fill-rule="evenodd" clip-rule="evenodd" d="M0 63.9984C0 81.6586 14.34 95.9981 32.0002 95.9981C49.6603 95.9981 64.0003 81.6586 64.0003 63.9984H0Z" fill="var(--fill-0, white)"/>
<path id="Vector_3" fill-rule="evenodd" clip-rule="evenodd" d="M96 31.9978C96 14.3381 81.66 0 64.0003 0C46.3407 0 32.0002 14.3381 32.0002 31.9978H96Z" fill="var(--fill-0, white)"/>
<path id="Vector_4" fill-rule="evenodd" clip-rule="evenodd" d="M32.0002 0C14.34 0 0 14.3381 0 31.9978C0 49.6574 14.34 63.9984 32.0002 63.9984V0Z" fill="var(--fill-0, white)"/>
</g>
</svg>
